<svg width="471" height="292" viewBox="0 0 471 292" fill="none" xmlns="http://www.w3.org/2000/svg">
<g clip-path="url(#clip0)">
<path d="M208.1 258.4C209.6 258.4 210.9 259.6 210.9 261.2C210.9 262.7 209.7 264 208.1 264C206.5 264 205.3 262.8 205.3 261.2C205.3 259.7 206.6 258.4 208.1 258.4Z" fill="white" fill-opacity="0.3"/>
<path d="M214.2 264.6C215.7 264.6 217 265.8 217 267.4C217 268.9 215.8 270.2 214.2 270.2C212.7 270.2 211.4 269 211.4 267.4C211.5 265.8 212.7 264.6 214.2 264.6Z" fill="white" fill-opacity="0.3"/>
<path d="M220.4 270.5C221.9 270.5 223.2 271.7 223.2 273.3C223.2 274.8 222 276.1 220.4 276.1C218.9 276.1 217.6 274.9 217.6 273.3C217.6 271.8 218.8 270.5 220.4 270.5Z" fill="white" fill-opacity="0.3"/>
<path d="M230.1 280.6C231.6 280.6 232.9 281.8 232.9 283.4C232.9 284.9 231.7 286.2 230.1 286.2C228.5 286.2 227.3 285 227.3 283.4C227.4 281.9 228.6 280.6 230.1 280.6Z" fill="white" fill-opacity="0.3"/>
<path d="M236.6 286.6C238.1 286.6 239.4 287.8 239.4 289.4C239.4 290.9 238.2 292.2 236.6 292.2C235.1 292.2 233.8 291 233.8 289.4C233.8 287.8 235 286.6 236.6 286.6Z" fill="white" fill-opacity="0.3"/>
<path d="M164 221.1L168 217L204.2 253.2L200.2 257.3L164 221.1Z" fill="white" fill-opacity="0.3"/>
<path d="M240.1 219.3C241.6 219.3 242.9 220.5 242.9 222.1C242.9 223.6 241.7 224.9 240.1 224.9C238.6 224.9 237.3 223.7 237.3 222.1C237.3 220.5 238.5 219.3 240.1 219.3Z" fill="white" fill-opacity="0.3"/>
<path d="M246.2 225.3C247.7 225.3 249 226.5 249 228.1C249 229.6 247.8 230.9 246.2 230.9C244.7 230.9 243.4 229.7 243.4 228.1C243.4 226.5 244.7 225.3 246.2 225.3Z" fill="white" fill-opacity="0.3"/>
<path d="M252.2 231.2C253.7 231.2 255 232.4 255 234C255 235.6 253.8 236.8 252.2 236.8C250.7 236.8 249.4 235.6 249.4 234C249.4 232.4 250.6 231.2 252.2 231.2Z" fill="white" fill-opacity="0.3"/>
<path d="M258.3 237.2C259.8 237.2 261.1 238.4 261.1 240C261.1 241.5 259.9 242.8 258.3 242.8C256.8 242.8 255.5 241.6 255.5 240C255.5 238.5 256.8 237.2 258.3 237.2Z" fill="white" fill-opacity="0.3"/>
<path d="M264.1 243.5C265.6 243.5 266.9 244.7 266.9 246.3C266.9 247.8 265.7 249.1 264.1 249.1C262.6 249.1 261.3 247.9 261.3 246.3C261.4 244.7 262.6 243.5 264.1 243.5Z" fill="white" fill-opacity="0.3"/>
<path d="M244.4 255.3C245.9 255.3 247.2 256.5 247.2 258.1C247.2 259.6 246 260.9 244.4 260.9C242.8 260.9 241.6 259.7 241.6 258.1C241.6 256.6 242.9 255.3 244.4 255.3Z" fill="white" fill-opacity="0.3"/>
<path d="M252 263.5C253.5 263.5 254.8 264.7 254.8 266.3C254.8 267.8 253.6 269.1 252 269.1C250.5 269.1 249.2 267.9 249.2 266.3C249.2 264.7 250.5 263.5 252 263.5Z" fill="white" fill-opacity="0.3"/>
<path d="M286.5 281.6C288 281.6 289.3 282.8 289.3 284.4C289.3 286 288.1 287.2 286.5 287.2C285 287.2 283.7 286 283.7 284.4C283.7 282.8 284.9 281.6 286.5 281.6Z" fill="white" fill-opacity="0.3"/>
<path d="M278.3 280.3L282.4 276.3L246.2 240.1L242.1 244.1L278.3 280.3Z" fill="white" fill-opacity="0.3"/>
<path d="M304.4 290.3L308.5 286.4L272.3 250.2L268.2 254.2L304.4 290.3Z" fill="white" fill-opacity="0.3"/>
<path d="M274.3 292.4L278.3 288.3L260.2 270.2L256.2 274.3L274.3 292.4Z" fill="white" fill-opacity="0.3"/>
<path d="M238.2 240.1L242.1 236.1L233.2 227.2L229.1 231.1L238.2 240.1Z" fill="white" fill-opacity="0.3"/>
<path d="M15.3 55.8003C13.8 55.8003 12.5 54.6003 12.5 53.0003C12.5 51.5003 13.7 50.2003 15.3 50.2003C16.9 50.2003 18.1 51.4003 18.1 53.0003C18.1 54.5003 16.8 55.8003 15.3 55.8003Z" fill="white" fill-opacity="0.3"/>
<path d="M9.20039 49.6001C7.70039 49.6001 6.40039 48.4001 6.40039 46.8001C6.40039 45.3001 7.60039 44.0001 9.20039 44.0001C10.7004 44.0001 12.0004 45.2001 12.0004 46.8001C11.9004 48.4001 10.7004 49.6001 9.20039 49.6001Z" fill="white" fill-opacity="0.3"/>
<path d="M3.00019 43.7002C1.50019 43.7002 0.200195 42.5002 0.200195 40.9002C0.200195 39.4002 1.40019 38.1002 3.00019 38.1002C4.50019 38.1002 5.80019 39.3002 5.80019 40.9002C5.80019 42.4002 4.60019 43.7002 3.00019 43.7002Z" fill="white" fill-opacity="0.3"/>
<path d="M59.4002 93.1002L55.4002 97.2002L19.2002 61.0002L23.2002 56.9002L59.4002 93.1002Z" fill="white" fill-opacity="0.3"/>
<path d="M48.3996 158.101C46.8996 158.101 45.5996 156.901 45.5996 155.301C45.5996 153.801 46.7996 152.501 48.3996 152.501C49.8996 152.501 51.1996 153.701 51.1996 155.301C51.1996 156.901 49.9996 158.101 48.3996 158.101Z" fill="white" fill-opacity="0.3"/>
<path d="M42.3 152.101C40.8 152.101 39.5 150.901 39.5 149.301C39.5 147.801 40.7 146.501 42.3 146.501C43.8 146.501 45.1 147.701 45.1 149.301C45.1 150.901 43.8 152.101 42.3 152.101Z" fill="white" fill-opacity="0.3"/>
<path d="M36.3 146.2C34.8 146.2 33.5 145 33.5 143.4C33.5 141.8 34.7 140.6 36.3 140.6C37.8 140.6 39.1 141.8 39.1 143.4C39.1 145 37.9 146.2 36.3 146.2Z" fill="white" fill-opacity="0.3"/>
<path d="M30.2004 140.2C28.7004 140.2 27.4004 139 27.4004 137.4C27.4004 135.9 28.6004 134.6 30.2004 134.6C31.7004 134.6 33.0004 135.8 33.0004 137.4C33.0004 138.9 31.7004 140.2 30.2004 140.2Z" fill="white" fill-opacity="0.3"/>
<path d="M24.3996 133.9C22.8996 133.9 21.5996 132.7 21.5996 131.1C21.5996 129.6 22.7996 128.3 24.3996 128.3C25.8996 128.3 27.1996 129.5 27.1996 131.1C27.0996 132.7 25.8996 133.9 24.3996 133.9Z" fill="white" fill-opacity="0.3"/>
<path d="M44.0998 122.101C42.5998 122.101 41.2998 120.901 41.2998 119.301C41.2998 117.801 42.4998 116.501 44.0998 116.501C45.6998 116.501 46.8998 117.701 46.8998 119.301C46.8998 120.801 45.5998 122.101 44.0998 122.101Z" fill="white" fill-opacity="0.3"/>
<path d="M36.5002 113.9C35.0002 113.9 33.7002 112.7 33.7002 111.1C33.7002 109.6 34.9002 108.3 36.5002 108.3C38.0002 108.3 39.3002 109.5 39.3002 111.1C39.3002 112.7 38.0002 113.9 36.5002 113.9Z" fill="white" fill-opacity="0.3"/>
<path d="M2.00019 95.8003C0.500195 95.8003 -0.799805 94.6003 -0.799805 93.0003C-0.799805 91.4003 0.400195 90.2003 2.00019 90.2003C3.50019 90.2003 4.80019 91.4003 4.80019 93.0003C4.80019 94.6003 3.60019 95.8003 2.00019 95.8003Z" fill="white" fill-opacity="0.3"/>
<path d="M10.1996 97.1003L6.09961 101.1L42.2996 137.3L46.3996 133.3L10.1996 97.1003Z" fill="white" fill-opacity="0.3"/>
<path d="M-15.9 87.1002L-20 91.0002L16.2 127.2L20.3 123.2L-15.9 87.1002Z" fill="white" fill-opacity="0.3"/>
<path d="M14.2002 85.0002L10.2002 89.1002L28.3002 107.2L32.3002 103.1L14.2002 85.0002Z" fill="white" fill-opacity="0.3"/>
<path d="M50.3004 137.3L46.4004 141.3L55.3004 150.2L59.4004 146.3L50.3004 137.3Z" fill="white" fill-opacity="0.3"/>
<path d="M25.5009 13.6692C33.2463 23.4379 46.5404 27.0143 58.3207 22.4984C73.0929 16.7827 80.3208 0.127204 74.5851 -14.6696L82.0859 -19.0002C90.2576 0.0160178 81.6431 21.8673 62.66 30.0142C46.8003 36.8853 28.3132 31.9119 18.0001 17.9998L25.5009 13.6692Z" fill="white" fill-opacity="0.3"/>
<path d="M391.085 283.909C383.34 274.141 370.046 270.564 358.265 275.08C343.493 280.796 336.265 297.451 342.001 312.248L334.5 316.579C326.328 297.563 334.943 275.711 353.926 267.564C369.786 260.693 388.273 265.667 398.586 279.579L391.085 283.909Z" fill="white" fill-opacity="0.3"/>
</g>
<defs>
<clipPath id="clip0">
<rect width="471" height="292" fill="white"/>
</clipPath>
</defs>
</svg>
