<svg width="331" height="205" viewBox="0 0 331 205" fill="none" xmlns="http://www.w3.org/2000/svg">
	<g id="frame" fill="#0D134A">
		<path id="semicircle" d="M0.676758 24.7955C34.7263 30.1087 61.2584 56.6746 66.5648 90.7674C73.1978 133.716 43.5703 174.007 0.676758 180.206V204.115C56.8363 197.474 97.0767 146.556 90.4437 90.3247C85.1372 43.3916 47.9923 6.19941 0.676758 0.88623V24.7955Z" />
		<g id="waves">
			<path d="M211.606 54.9023C203.204 54.9023 196.129 61.9866 196.129 70.3991H181.094C181.094 61.9866 174.019 54.9023 165.617 54.9023C157.215 54.9023 150.14 61.9866 150.14 70.3991H127.146C127.146 78.8116 134.221 85.8959 142.623 85.8959C151.024 85.8959 158.1 78.8116 158.1 70.3991H173.134C173.134 78.8116 180.21 85.8959 188.611 85.8959C197.013 85.8959 204.088 78.8116 204.088 70.3991H227.083C227.083 61.9866 220.008 54.9023 211.606 54.9023Z" />
			<path d="M315.523 54.9023C307.121 54.9023 300.046 61.9866 300.046 70.3991H285.011C285.011 61.9866 277.936 54.9023 269.534 54.9023C261.132 54.9023 254.057 61.9866 254.057 70.3991H231.062C231.062 78.8116 238.138 85.8959 246.54 85.8959C254.941 85.8959 262.017 78.8116 262.017 70.3991H277.051C277.051 78.8116 284.127 85.8959 292.528 85.8959C300.93 85.8959 308.005 78.8116 308.005 70.3991H331C331 61.9866 323.925 54.9023 315.523 54.9023Z" />
			<path d="M315.523 89.439C307.121 89.439 300.046 96.5232 300.046 104.936H285.011C285.011 96.5232 277.936 89.439 269.534 89.439C261.132 89.439 254.057 96.5232 254.057 104.936H231.062C231.062 113.348 238.138 120.432 246.54 120.432C254.941 120.432 262.017 113.348 262.017 104.936H277.051C277.051 113.348 284.127 120.432 292.528 120.432C300.93 120.432 308.005 113.348 308.005 104.936H331C331 96.0804 323.925 89.439 315.523 89.439Z" />
			<path d="M315.523 123.531C307.121 123.531 300.046 130.615 300.046 139.028H285.011C285.011 130.615 277.936 123.531 269.534 123.531C261.132 123.531 254.057 130.615 254.057 139.028H231.062C231.062 147.44 238.138 154.524 246.54 154.524C254.941 154.524 262.017 147.44 262.017 139.028H277.051C277.051 147.44 284.127 154.524 292.528 154.524C300.93 154.524 308.005 147.44 308.005 139.028H331C331 130.615 323.925 123.531 315.523 123.531Z" />
			<path d="M211.606 89.439C203.204 89.439 196.129 96.5232 196.129 104.936H181.094C181.094 96.5232 174.019 89.439 165.617 89.439C157.215 89.439 150.14 96.5232 150.14 104.936H127.146C127.146 113.348 134.221 120.432 142.623 120.432C151.024 120.432 158.1 113.348 158.1 104.936H173.134C173.134 113.348 180.21 120.432 188.611 120.432C197.013 120.432 204.088 113.348 204.088 104.936H227.083C227.083 96.0804 220.008 89.439 211.606 89.439Z" />
			<path d="M211.606 123.531C203.204 123.531 196.129 130.615 196.129 139.028H181.094C181.094 130.615 174.019 123.531 165.617 123.531C157.215 123.531 150.14 130.615 150.14 139.028H127.146C127.146 147.44 134.221 154.524 142.623 154.524C151.024 154.524 158.1 147.44 158.1 139.028H173.134C173.134 147.44 180.21 154.524 188.611 154.524C197.013 154.524 204.088 147.44 204.088 139.028H227.083C227.083 130.615 220.008 123.531 211.606 123.531Z" />
		</g>
	</g>
</svg>
